<?xml version="1.0" encoding="iso-8859-1"?>
<!-- Generator: Adobe Illustrator 19.0.0, SVG Export Plug-In . SVG Version: 6.00 Build 0)  -->
<svg version="1.1" id="Capa_1" xmlns="http://www.w3.org/2000/svg" xmlns:xlink="http://www.w3.org/1999/xlink" x="0px" y="0px"
	 viewBox="0 0 489.1 489.1" style="enable-background:new 0 0 489.1 489.1;" xml:space="preserve">
<g>
	<g>
		<g>
			<path d="M37.8,412.55h36.3h340.8h36.3c20.9,0,37.9-17,37.9-37.9v-23.3h-30.6h-1.6v-240.5c-0.1-18.9-15.4-34.3-34.4-34.3h-356
				c-18.9,0-34.3,15.3-34.3,34.3v240.5h-1.7H0v23.3C0,395.55,16.9,412.55,37.8,412.55z M78.9,123.35H410v228.1H290.3v2.3
				c0,7.2-5.8,13-13,13h-65.7c-7.2,0-13-5.8-13-13v-2.3H78.9V123.35z M199,275.65l-26.2-26.4l27.4-27.2l26.2,26.4l62.7-62.3
				l27.2,27.4l-62.7,62.3l-27.4,27.2L199,275.65z"/>
		</g>
	</g>
</g>
<g>
</g>
<g>
</g>
<g>
</g>
<g>
</g>
<g>
</g>
<g>
</g>
<g>
</g>
<g>
</g>
<g>
</g>
<g>
</g>
<g>
</g>
<g>
</g>
<g>
</g>
<g>
</g>
<g>
</g>
</svg>
