<svg xmlns="http://www.w3.org/2000/svg" style="display: none;"><symbol id="basket" viewBox="0 0 512 512"><title>supermarket</title><path d="M480,175.999h-65.281L328.297,75.17c-11.516-13.406-31.734-14.969-45.125-3.469c-13.422,11.5-14.969,31.704-3.469,45.126 l50.719,59.173H181.578l50.719-59.173c11.5-13.422,9.953-33.625-3.469-45.125c-13.391-11.484-33.609-9.921-45.125,3.469 L97.281,175.999H32c-17.672,0-32,14.328-32,32s14.328,32,32,32h0.352c0,1-0.281,1.741-0.133,2.624l27.547,165.266 c3.859,23.234,23.766,40.11,47.344,40.11h297.781c23.578,0,43.484-16.876,47.344-40.11l27.547-165.265 c0.148-0.883-0.133-1.624-0.133-2.624H480c17.672,0,32-14.328,32-32S497.672,175.999,480,175.999z M176,367.997 c0,8.844-7.156,16-16,16c-8.844,0-16-7.156-16-16v-80c0-8.844,7.156-16,16-16c8.844,0,16,7.156,16,16V367.997z M240,367.997 c0,8.844-7.156,16-16,16c-8.844,0-16-7.156-16-16v-80c0-8.844,7.156-16,16-16c8.844,0,16,7.156,16,16V367.997z M304,367.997 c0,8.844-7.156,16-16,16c-8.844,0-16-7.156-16-16v-80c0-8.844,7.156-16,16-16c8.844,0,16,7.156,16,16V367.997z M368,367.997 c0,8.844-7.156,16-16,16c-8.844,0-16-7.156-16-16v-80c0-8.844,7.156-16,16-16c8.844,0,16,7.156,16,16V367.997z"/></symbol><symbol id="lock" viewBox="0 0 485.213 485.212"><title>lock</title><path d="M363.908,212.282v-90.978C363.908,54.434,309.509,0,242.606,0c-66.884,0-121.302,54.434-121.302,121.304v90.978 c-33.498,0-60.653,27.158-60.653,60.648v151.629c0,33.5,27.155,60.653,60.653,60.653h242.604c33.491,0,60.653-27.153,60.653-60.653 V272.93C424.562,239.439,397.399,212.282,363.908,212.282z M257.77,359.257v50.139c0,8.382-6.781,15.163-15.163,15.163 c-8.382,0-15.164-6.781-15.164-15.163v-50.139c-8.9-5.269-15.161-14.57-15.161-25.673c0-16.765,13.579-30.327,30.324-30.327 c16.745,0,30.326,13.562,30.326,30.327C272.933,344.687,266.665,353.989,257.77,359.257z M303.255,212.282h-121.3v-90.978 c0-33.465,27.2-60.653,60.651-60.653c33.435,0,60.648,27.188,60.648,60.653V212.282z"/></symbol><symbol id="laptop" viewBox="0 0 489.1 489.1"><title>laptop</title><path d="M37.8,412.55h36.3h340.8h36.3c20.9,0,37.9-17,37.9-37.9v-23.3h-30.6h-1.6v-240.5c-0.1-18.9-15.4-34.3-34.4-34.3h-356 c-18.9,0-34.3,15.3-34.3,34.3v240.5h-1.7H0v23.3C0,395.55,16.9,412.55,37.8,412.55z M78.9,123.35H410v228.1H290.3v2.3 c0,7.2-5.8,13-13,13h-65.7c-7.2,0-13-5.8-13-13v-2.3H78.9V123.35z M199,275.65l-26.2-26.4l27.4-27.2l26.2,26.4l62.7-62.3 l27.2,27.4l-62.7,62.3l-27.4,27.2L199,275.65z"/></symbol></svg>
