<svg xmlns="http://www.w3.org/2000/svg" style="display: none;"><symbol id="coffee" viewBox="0 0 252.936 252.937"><title>coffee-cup-of-hot-drink-black-silhouette</title><path d="M250.199,130.708c-3.234-4.784-8.961-7.645-15.317-7.645h-30.998c0.326-4.672,0.447-8.541,0.485-11.318 c0.027-2.639-2.171-4.779-4.816-4.779H7.107c-2.642,0-4.844,2.135-4.807,4.779c0.273,20.652,5.577,102.097,71.59,121.932H12.045 c-3.909,0-8.245,2.954-9.659,6.604l-1.93,4.966c-1.421,3.646,0.586,6.604,4.506,6.604h196.727c3.911,0,5.928-2.959,4.509-6.604 l-1.941-4.966c-1.419-3.649-5.74-6.604-9.661-6.604h-58.823c22.42-7.024,37.542-21.744,47.716-38.802 c42.61-1.204,60.952-30.668,68.102-48.426C253.784,141.004,253.279,135.263,250.199,130.708z M238.289,141.102 c-6.496,16.144-19.919,35.003-47.23,38.816c6.179-14.669,9.516-29.828,11.299-42.513h32.524c1.876,0,3.006,0.682,3.436,1.33 C238.7,139.3,238.69,140.094,238.289,141.102z"/><path d="M101.503,100.738c1.011,1.162,2.429,1.755,3.839,1.755c1.186,0,2.371-0.411,3.32-1.239 c2.119-1.834,2.353-5.041,0.511-7.159c-0.119-0.152-13.572-16.048-4.926-26.924c11.528-14.51,4.506-26.357-0.821-30.59 c-2.184-1.746-5.386-1.386-7.131,0.807c-1.724,2.18-1.381,5.349,0.775,7.096c1.232,1.053,6.924,6.681-0.775,16.379 C82.417,78.325,100.731,99.831,101.503,100.738z"/><path d="M128.654,10.094c2.156-1.755,2.499-4.919,0.765-7.096c-1.745-2.193-4.938-2.553-7.131-0.81 c-5.318,4.235-12.34,16.083-0.812,30.592c8.646,10.877-4.807,26.778-4.938,26.924c-1.83,2.117-1.605,5.325,0.513,7.16 c0.959,0.831,2.145,1.239,3.321,1.239c1.419,0,2.837-0.593,3.836-1.755c0.784-0.907,19.09-22.413,5.22-39.887 C121.719,16.775,127.417,11.14,128.654,10.094z"/></symbol><symbol id="tv" viewBox="0 0 453.001 453.001"><title>tv</title><path d="M420.135,110.203H280.091l49.728-81.594c4.312-7.074,2.072-16.304-5.002-20.615c-7.073-4.313-16.304-2.072-20.615,5.002 l-59.243,97.207h-36.916L148.8,12.996c-4.311-7.072-13.541-9.312-20.615-5.002c-7.074,4.312-9.314,13.541-5.002,20.615 l49.728,81.594H32.865C14.743,110.203,0,124.946,0,143.067v271.271c0,18.121,14.743,32.864,32.865,32.864h387.271 c18.122,0,32.865-14.743,32.865-32.864V143.067C453,124.946,438.257,110.203,420.135,110.203z M317.677,374.912 c0,9.866-7.998,17.865-17.865,17.865H71.188c-9.866-0.001-17.864-7.999-17.864-17.865V182.494c0-9.866,7.998-17.865,17.865-17.865 h228.623c9.866,0,17.865,7.999,17.865,17.865V374.912z M383.792,369.203c-17.093,0-31-13.907-31-31c0-17.094,13.907-31,31-31 c17.093,0,31,13.906,31,31S400.885,369.203,383.792,369.203z M383.792,250.203c-17.093,0-31-13.906-31-31s13.907-31,31-31 c17.093,0,31,13.906,31,31S400.885,250.203,383.792,250.203z"/></symbol><symbol id="chemical" viewBox="0 0 505.821 505.82"><title>beaker</title><path d="M440.636,467.323c0,21.226-17.26,38.497-38.491,38.497H103.687c-21.246,0-38.503-17.271-38.503-38.497 c0-2.058,0.381-4.103,1.114-6.023l103.379-270.926c0.036-0.429,0.098-0.86,0.151-1.283V33.848h-12.215 c-9.351,0-16.917-7.578-16.917-16.925C140.697,7.578,148.263,0,157.614,0h29.131c9.351,0,16.931,7.578,16.931,16.923v173.475 c0,0.976-0.085,1.939-0.248,2.899c0,2.066-0.497,4.844-1.241,6.762l-62.27,163.182h224.529l-64.332-163.001 c-0.697-1.756-1.088-3.611-1.171-5.488l-0.142-1.022c-0.07-0.668-0.106-1.333-0.106-1.998V16.923C298.695,7.578,306.26,0,315.612,0 h29.896c9.351,0,16.916,7.578,16.916,16.923c0,9.348-7.565,16.925-16.916,16.925h-12.986v156.357L439.448,461.11 C440.234,463.097,440.636,465.195,440.636,467.323z M220.126,325.535c0-6.998,5.683-12.69,12.688-12.69 c7.001,0,12.696,5.687,12.696,12.69c0,6.992-5.695,12.69-12.696,12.69C225.809,338.226,220.126,332.527,220.126,325.535z M228.576,325.535c0,2.329,1.9,4.227,4.232,4.227c2.329,0,4.229-1.897,4.229-4.227c0-2.334-1.9-4.231-4.229-4.231 C230.476,321.304,228.576,323.201,228.576,325.535z M285.691,312.845c0-6.998,5.692-12.696,12.696-12.696 c6.999,0,12.685,5.692,12.685,12.696c0,6.987-5.686,12.69-12.685,12.69C291.383,325.535,285.691,319.844,285.691,312.845z M294.15,312.845c0,2.329,1.897,4.221,4.231,4.221c2.329,0,4.227-1.892,4.227-4.221c0-2.341-1.897-4.231-4.227-4.231 C296.047,308.613,294.15,310.516,294.15,312.845z M250.425,270.542c0-9.724,7.912-17.632,17.64-17.632 c9.712,0,17.626,7.908,17.626,17.632c0,9.711-7.914,17.632-17.626,17.632C258.331,288.174,250.425,280.265,250.425,270.542z M258.886,270.542c0,5.054,4.116,9.167,9.179,9.167c5.048,0,9.174-4.113,9.174-9.167c0-5.06-4.126-9.18-9.174-9.18 C263.002,261.362,258.886,265.482,258.886,270.542z"/></symbol><symbol id="mail" viewBox="0 0 334.5 334.5"><title>sent-mail</title><path d="M332.797,13.699c-1.489-1.306-3.608-1.609-5.404-0.776L2.893,163.695c-1.747,0.812-2.872,2.555-2.893,4.481 s1.067,3.693,2.797,4.542l91.833,45.068c1.684,0.827,3.692,0.64,5.196-0.484l89.287-66.734l-70.094,72.1 c-1,1.029-1.51,2.438-1.4,3.868l6.979,90.889c0.155,2.014,1.505,3.736,3.424,4.367c0.513,0.168,1.04,0.25,1.561,0.25 c1.429,0,2.819-0.613,3.786-1.733l48.742-56.482l60.255,28.79c1.308,0.625,2.822,0.651,4.151,0.073 c1.329-0.579,2.341-1.705,2.775-3.087L334.27,18.956C334.864,17.066,334.285,15.005,332.797,13.699z"/></symbol></svg>
